<svg aria-hidden="true" style="position: absolute; width: 0; height: 0; overflow: hidden;" version="1.1" xmlns="http://www.w3.org/2000/svg" xmlns:xlink="http://www.w3.org/1999/xlink">
<defs>
<symbol id="icon-presentation" viewBox="0 0 31 32">
<title>presentation</title>
<path d="M0.5 3c-0.276 0-0.5 0.224-0.5 0.5v17c0 0.827 0.673 1.5 1.5 1.5h28c0.827 0 1.5-0.673 1.5-1.5v-17c0-0.276-0.224-0.5-0.5-0.5s-0.5 0.224-0.5 0.5v17c0 0.276-0.224 0.5-0.5 0.5h-28c-0.276 0-0.5-0.224-0.5-0.5v-17c0-0.276-0.224-0.5-0.5-0.5zM32.5 0h-34c-0.276 0-0.5 0.224-0.5 0.5s0.224 0.5 0.5 0.5h34c0.276 0 0.5-0.224 0.5-0.5s-0.224-0.5-0.5-0.5zM11.854 8.146c-0.183-0.183-0.475-0.196-0.674-0.031l-6 5c-0.212 0.177-0.241 0.492-0.064 0.705 0.177 0.212 0.491 0.241 0.705 0.064l5.649-4.708 5.677 5.677c0.097 0.098 0.225 0.147 0.353 0.147s0.256-0.049 0.354-0.146l7.146-7.147v3.793c0 0.276 0.224 0.5 0.5 0.5s0.5-0.224 0.5-0.5v-5c0-0.065-0.013-0.13-0.038-0.191-0.051-0.122-0.148-0.22-0.271-0.271-0.061-0.025-0.126-0.038-0.191-0.038h-5c-0.276 0-0.5 0.224-0.5 0.5s0.224 0.5 0.5 0.5h3.793l-6.793 6.793-5.646-5.647zM8.057 31.732c0.128 0.245 0.43 0.339 0.675 0.211l6.768-3.545 6.768 3.545c0.074 0.039 0.153 0.057 0.232 0.057 0.18 0 0.354-0.098 0.443-0.268 0.128-0.245 0.034-0.547-0.211-0.675l-6.893-3.61c0.098-0.091 0.161-0.219 0.161-0.364v-2.583c0-0.276-0.224-0.5-0.5-0.5s-0.5 0.224-0.5 0.5v2.583c0 0.144 0.063 0.272 0.161 0.363l-6.893 3.61c-0.245 0.129-0.339 0.431-0.211 0.676z"></path>
</symbol>
<symbol id="icon-key" viewBox="0 0 32 32">
<title>key</title>
<path d="M22 0c-5.523 0-10 4.477-10 10 0 0.626 0.058 1.238 0.168 1.832l-12.168 12.168v6c0 1.105 0.895 2 2 2h2v-2h4v-4h4v-4h4l2.595-2.595c1.063 0.385 2.209 0.595 3.405 0.595 5.523 0 10-4.477 10-10s-4.477-10-10-10zM24.996 10.004c-1.657 0-3-1.343-3-3s1.343-3 3-3 3 1.343 3 3-1.343 3-3 3z"></path>
</symbol>
<symbol id="icon-award" viewBox="0 0 24 24">
<title>award</title>
<path d="M20 8c0-4.4-3.6-8-8-8s-8 3.6-8 8c0 2.6 1.2 4.9 3.1 6.3l-1.1 8.6c-0.1 0.4 0.1 0.8 0.4 1s0.7 0.2 1.1 0l4.5-2.7 4.5 2.7c0.1 0.1 0.3 0.1 0.5 0.1s0.4-0.1 0.5-0.2 0.5-0.6 0.4-1l-1.1-8.5c2-1.4 3.2-3.7 3.2-6.3zM6 8c0-3.3 2.7-6 6-6s6 2.7 6 6-2.7 6-6 6-6-2.7-6-6zM15.7 21.1l-3.2-1.9c-0.3-0.2-0.7-0.2-1 0l-3.2 1.9 0.7-5.7c0.9 0.4 1.9 0.6 3 0.6s2.1-0.2 3-0.6l0.7 5.7z"></path>
</symbol>
<symbol id="icon-globe" viewBox="0 0 24 24">
<title>globe</title>
<path d="M12 1c-6.1 0-11 4.9-11 11s4.9 11 11 11 11-4.9 11-11-4.9-11-11-11zM20.9 11h-4c-0.2-2.8-1.1-5.4-2.7-7.7 3.6 0.9 6.3 4 6.7 7.7zM9.1 13h5.9c-0.3 2.7-1.3 5.3-2.9 7.4-1.8-2.1-2.8-4.7-3-7.4zM9.1 11c0.3-2.7 1.3-5.3 2.9-7.4 1.7 2.2 2.7 4.8 2.9 7.4h-5.8zM9.7 3.3c-1.5 2.3-2.4 4.9-2.6 7.7h-4c0.4-3.7 3.1-6.8 6.6-7.7zM3.1 13h4c0.2 2.8 1.1 5.4 2.7 7.7-3.6-0.9-6.3-4-6.7-7.7zM14.3 20.7c1.5-2.3 2.4-4.9 2.7-7.7h4c-0.5 3.7-3.2 6.8-6.7 7.7z"></path>
</symbol>
<symbol id="icon-lock" viewBox="0 0 24 24">
<title>lock</title>
<path d="M19 10h-1v-3c0-3.3-2.7-6-6-6s-6 2.7-6 6v3h-1c-1.7 0-3 1.3-3 3v7c0 1.7 1.3 3 3 3h14c1.7 0 3-1.3 3-3v-7c0-1.7-1.3-3-3-3zM8 7c0-2.2 1.8-4 4-4s4 1.8 4 4v3h-8v-3zM20 20c0 0.6-0.4 1-1 1h-14c-0.6 0-1-0.4-1-1v-7c0-0.6 0.4-1 1-1h14c0.6 0 1 0.4 1 1v7z"></path>
</symbol>
<symbol id="icon-map" viewBox="0 0 24 24">
<title>map</title>
<path d="M23.5 1.1c-0.3-0.2-0.7-0.2-1 0l-6.5 3.8-7.6-3.8c0 0 0 0 0 0s0 0-0.1 0c-0.1-0.1-0.2-0.1-0.3-0.1 0 0 0 0 0 0s0 0 0 0c-0.1 0-0.2 0-0.4 0.1 0 0 0 0-0.1 0 0 0-0.1 0-0.1 0l-7 4c-0.2 0.2-0.4 0.5-0.4 0.9v16c0 0.4 0.2 0.7 0.5 0.9s0.7 0.2 1 0l6.5-3.8 7.5 3.8c0 0 0 0 0 0 0.2 0.1 0.3 0.1 0.5 0.1 0.1 0 0.2 0 0.3-0.1 0 0 0.1 0 0.1 0s0 0 0.1 0l7-4c0.3-0.2 0.5-0.5 0.5-0.9v-16c0-0.4-0.2-0.7-0.5-0.9zM9 3.6l6 3v13.8l-6-3v-13.8zM2 6.6l5-2.9v13.7l-5 2.9v-13.7zM22 17.4l-5 2.9v-13.7l5-2.9v13.7z"></path>
</symbol>
</defs>
</svg>
